<?xml version="1.0" encoding="utf-8"?>
<svg id="master-artboard" viewBox="0 0 694.8909301757812 705.8594970703125" version="1.0" xmlns="http://www.w3.org/2000/svg" x="0px" y="0px" width="694.8909301757812px" height="705.8594970703125px" enable-background="new 0 0 1400 980"><rect id="ee-background" x="0" y="0" width="694.8909301757812" height="705.8594970703125" style="fill: white; fill-opacity: 0; pointer-events: none;"/>
<linearGradient id="XMLID_3_" gradientUnits="userSpaceOnUse" x1="241.9349" y1="83.3777" x2="241.9349" y2="246.4281">
			<stop offset="0" style="stop-color:#FBBFA2;stop-opacity:0.9674"/>
			<stop offset="1" style="stop-color:#FBBFA2;stop-opacity:0"/>
		</linearGradient><linearGradient id="XMLID_4_" gradientUnits="userSpaceOnUse" x1="745" y1="119.3777" x2="745" y2="282.4281">
			<stop offset="0" style="stop-color:#FBBFA2;stop-opacity:0.9674"/>
			<stop offset="1" style="stop-color:#FBBFA2;stop-opacity:0"/>
		</linearGradient><linearGradient id="XMLID_5_" gradientUnits="userSpaceOnUse" x1="1133" y1="21.3777" x2="1133" y2="184.4281">
			<stop offset="0" style="stop-color:#FBBFA2;stop-opacity:0.9674"/>
			<stop offset="1" style="stop-color:#FBBFA2;stop-opacity:0"/>
		</linearGradient><linearGradient id="XMLID_6_" gradientUnits="userSpaceOnUse" x1="459.864" y1="56.4586" x2="459.864" y2="175.1595">
			<stop offset="0" style="stop-color:#FBBFA2;stop-opacity:0.9674"/>
			<stop offset="1" style="stop-color:#FBBFA2;stop-opacity:0"/>
		</linearGradient><linearGradient id="XMLID_7_" gradientUnits="userSpaceOnUse" x1="1247.864" y1="182.4917" x2="1247.864" y2="301.1926">
			<stop offset="0" style="stop-color:#FBBFA2;stop-opacity:0.9674"/>
			<stop offset="1" style="stop-color:#FBBFA2;stop-opacity:0"/>
		</linearGradient><linearGradient id="XMLID_8_" gradientUnits="userSpaceOnUse" x1="700" y1="448.272" x2="700" y2="838.1944">
		<stop offset="0" style="stop-color:#996951;stop-opacity:0.9674"/>
		<stop offset="1" style="stop-color:#B87D61;stop-opacity:0"/>
	</linearGradient><path id="XMLID_172_" fill="#E8E5D1" d="M1012.9,365.2v470c0,28.5-23.3,51.9-51.9,51.9H491c-28.5,0-51.9-23.3-51.9-51.9v-235h87.6&#10;&#9;&#9;&#9;l-0.1,0c0,0,19.4-2.7,19.4-18.4s-2.2-36.7,22.7-36.7s22.7,21.1,22.7,36.7s19.4,18.4,19.4,18.4l-0.1,0H726V486.8&#10;&#9;&#9;&#9;c0,0,2.7-19.4,18.4-19.4s36.7,2.2,36.7-22.7S760,422,744.4,422S726,402.5,726,402.5v-89.2h235&#10;&#9;&#9;&#9;C989.5,313.3,1012.9,336.7,1012.9,365.2z" transform="matrix(1, 0, 0, 1, -332.17920684814453, -192.63922691345215)" style="fill: rgb(3, 37, 57);"/><path id="XMLID_169_" fill="#A73D37" d="M1012.9,600.2v235c0,28.5-23.3,51.9-51.9,51.9H716.3V600.2H1012.9z" transform="matrix(1, 0, 0, 1, -332.17920684814453, -192.63922691345215)" style="fill: rgb(59, 156, 186);"/><path id="XMLID_132_" fill="#E9BBBD" d="M726,600.2V887H491c-28.5,0-51.9-23.3-51.9-51.9v-235h87.6l-0.1,0c0,0,19.4-2.7,19.4-18.4&#10;&#9;&#9;&#9;s-2.2-36.7,22.7-36.7s22.7,21.1,22.7,36.7s19.4,18.4,19.4,18.4l-0.1,0H726z" transform="matrix(1, 0, 0, 1, -332.17920684814453, -192.63922691345215)" style="fill: rgb(3, 37, 57);"/><path id="XMLID_127_" fill="#A73D37" d="M726,810.8l4.5-70.7l-4.5-73l0,34.6c0,0-2.7,19.4-18.4,19.4c-15.7,0-36.7-2.2-36.7,22.7&#10;&#9;&#9;&#9;c0,24.9,21.1,22.7,36.7,22.7c15.7,0,18.4,19.5,18.4,19.5L726,810.8L726,810.8z" transform="matrix(1, 0, 0, 1, -332.17920684814453, -192.63922691345215)" style="fill: rgb(59, 156, 186);"/><path id="XMLID_125_" fill="#E8E5D1" d="M936.4,600.3l-68.6-6.4l-75.1,6.4l34.6,0c0,0,19.4,2.7,19.4,18.4&#10;&#9;&#9;&#9;c0,15.7-2.2,36.7,22.7,36.7c24.9,0,22.7-21.1,22.7-36.7c0-15.7,19.5-18.4,19.5-18.4L936.4,600.3L936.4,600.3z" transform="matrix(1, 0, 0, 1, -332.17920684814453, -192.63922691345215)" style="fill: rgb(3, 37, 57);"/>
<path d="M 342.3999938964844 351.5 L 349.20001220703125 346.6000061035156 L 345.79998779296875 335.70001220703125 L 337.29998779296875 341.20001220703125 Z" id="XMLID_265_" fill="#E8E5D1" transform="matrix(1, 0, 0, 1, -332.17920684814453, -192.63922691345215)"/><path id="XMLID_267_" fill="#EEC19C" d="M348.3,343.6l7.1-3.8c0,0,3.5-8.9,1.9-20.5c-1.6-11.6,0.4-16.2,0.4-16.2s-10.7-3-13.1,7&#10;&#9;&#9;&#9;&#9;s1.3,25.6,1.3,25.6L348.3,343.6z" transform="matrix(1, 0, 0, 1, -332.17920684814453, -192.63922691345215)"/><path id="XMLID_209_" fill="#EBD467" d="M505.2,539.3c0,0,17.7-8.5,12.9-23.4c-4.8-14.9-13.3-34.3,10.3-41.9&#10;&#9;&#9;&#9;&#9;c23.7-7.6,28.1,13.1,32.9,28c4.8,14.9,24.1,11.5,24.1,11.5l-0.1,0.1L695,478.2l-34.8-107.9c0,0-3.4-19.3,11.5-24.1&#10;&#9;&#9;&#9;&#9;c14.9-4.8,35.6-9.2,28-32.9s-27-15.1-41.9-10.3s-23.4-12.9-23.4-12.9l-27.3-84.9l-223.7,72c-27.2,8.7-42.2,38.1-33.5,65.3&#10;&#9;&#9;&#9;&#9;l72,223.7l83.4-26.9L505.2,539.3z" transform="matrix(1, 0, 0, 1, -332.17920684814453, -192.63922691345215)" style="fill: rgb(250, 153, 28);"/><path d="M 885.1574096679688 498.6440734863281 L 885.1574096679688 498.6440734863281" style="fill: rgb(232, 229, 209); fill-opacity: 1; stroke: rgb(0, 0, 0); stroke-opacity: 1; stroke-width: 0; paint-order: fill;" transform="matrix(1, 0, 0, 1, -332.17920684814453, -192.63922691345215)"/><path d="M 875.2784423828125 636.9491577148438" style="fill: rgb(3, 37, 57); fill-opacity: 1; stroke: rgb(0, 0, 0); stroke-opacity: 1; stroke-width: 0; paint-order: fill;" transform="matrix(1, 0, 0, 1, -332.17920684814453, -192.63922691345215)"/></svg>